<?xml version="1.0" standalone="no"?>
<!DOCTYPE svg PUBLIC "-//W3C//DTD SVG 20010904//EN"
 "http://www.w3.org/TR/2001/REC-SVG-20010904/DTD/svg10.dtd">
<svg version="1.0" xmlns="http://www.w3.org/2000/svg"
 width="960.000000pt" height="960.000000pt" viewBox="0 0 960.000000 960.000000"
 preserveAspectRatio="xMidYMid meet">
<metadata>
Created by potrace 1.11, written by Peter Selinger 2001-2013
</metadata>
<g transform="translate(0.000000,960.000000) scale(0.100000,-0.100000)"
fill="#000000" stroke="none">
<path d="M0 4800 l0 -4800 1537 2 1537 3 94 235 c109 272 181 483 189 551 l6
48 -55 -6 c-43 -4 -65 -1 -108 18 -103 44 -226 162 -277 264 -68 135 -139 403
-203 755 -17 96 -47 258 -65 360 -100 552 -168 1126 -200 1693 l-7 118 -23
-31 c-34 -46 -127 -142 -132 -136 -3 2 32 66 76 141 l81 136 0 77 c0 80 -11
136 -32 165 -12 16 -25 3 -116 -111 -153 -192 -225 -255 -97 -85 121 160 128
187 191 673 19 148 31 187 169 520 105 253 202 498 237 600 28 79 28 85 12 97
-10 7 -29 13 -43 13 -58 0 -212 -118 -277 -211 -28 -41 -29 -45 -29 -168 0
-149 -4 -159 -102 -256 -106 -104 -138 -122 -64 -35 91 108 96 122 81 250 -9
82 -9 117 1 156 14 56 68 192 110 276 16 32 29 62 29 69 0 8 -43 10 -147 7
-177 -5 -218 -18 -358 -114 -183 -124 -245 -149 -245 -99 0 56 100 167 203
225 73 41 81 51 66 84 -16 34 -73 50 -161 44 -106 -8 -174 -46 -306 -172 -61
-58 -116 -106 -121 -106 -12 0 18 81 57 155 38 70 164 194 248 244 95 56 245
107 380 129 l109 18 -95 18 c-126 24 -335 46 -437 46 -105 0 -284 -25 -370
-51 -195 -61 -318 -166 -375 -322 l-23 -62 -3 39 c-5 63 16 166 49 233 55 114
185 208 351 253 153 41 232 48 898 80 395 19 608 66 766 169 57 37 164 141
164 159 0 4 -33 0 -72 -10 -266 -68 -539 -66 -1088 11 -298 42 -392 51 -520
51 -200 0 -356 -50 -452 -144 -25 -26 -48 -46 -51 -46 -3 0 1 21 10 48 44 130
136 207 293 245 151 37 346 32 725 -18 99 -13 254 -34 345 -46 216 -29 537
-32 649 -6 92 21 185 63 236 108 53 47 95 107 95 137 l0 24 -42 -26 c-166
-102 -277 -136 -445 -136 -129 0 -227 17 -345 61 -82 30 -302 138 -295 145 2
2 43 -10 92 -26 167 -57 275 -75 440 -75 120 1 167 5 237 23 166 41 329 141
408 249 l31 43 -12 97 c-20 150 -17 543 4 673 54 319 144 520 304 671 62 59
127 98 203 120 27 8 66 32 99 61 173 157 293 193 636 191 168 -1 224 -5 350
-27 451 -79 858 -257 1090 -478 135 -127 196 -239 199 -360 1 -64 -1 -69 -34
-103 -39 -41 -79 -65 -108 -65 -10 0 -55 18 -101 40 -45 22 -83 40 -84 40 -2
0 24 -28 56 -62 56 -61 127 -182 127 -220 0 -10 11 -24 25 -30 31 -14 32 -29
4 -46 -15 -10 -18 -17 -11 -24 7 -7 24 -3 56 12 58 30 78 17 74 -44 -3 -44 -3
-44 -113 -93 l-40 -18 -6 -165 c-11 -273 -35 -395 -106 -532 l-46 -88 6 -83
c4 -45 20 -136 37 -202 18 -66 34 -154 37 -197 6 -73 5 -77 -22 -103 -25 -26
-31 -27 -98 -23 -40 3 -78 3 -85 1 -27 -10 -43 -63 -37 -116 6 -47 4 -54 -19
-76 -16 -15 -41 -25 -71 -29 l-46 -5 21 -21 c14 -16 20 -36 20 -68 0 -48 -8
-56 -97 -88 -34 -13 -43 -32 -43 -101 0 -38 -6 -53 -36 -87 -20 -23 -56 -54
-81 -68 -40 -24 -51 -26 -108 -21 -64 6 -112 24 -150 56 -33 28 -242 151 -257
151 -18 0 -61 -46 -83 -88 -39 -78 -71 -317 -54 -408 13 -72 35 -110 110 -191
32 -35 70 -84 85 -110 16 -29 158 -180 354 -378 474 -479 636 -656 718 -784
48 -76 146 -275 171 -350 93 -275 78 -595 -50 -1062 -32 -118 -49 -295 -49
-533 0 -127 1 -138 18 -131 9 3 80 28 157 54 337 116 447 168 716 339 144 91
381 190 499 208 52 8 132 24 178 35 63 16 95 20 135 14 29 -4 86 -8 127 -9 73
-1 77 0 155 48 44 27 100 60 125 74 25 14 88 50 140 80 52 30 201 116 330 190
129 75 269 155 310 179 41 24 79 43 85 43 12 0 43 -28 99 -87 43 -46 43 -58
-4 -120 -16 -21 -33 -43 -37 -48 -57 -76 -94 -109 -175 -160 -51 -32 -122 -77
-158 -100 -36 -23 -116 -73 -177 -111 -97 -59 -112 -72 -105 -89 10 -28 4
-220 -8 -265 -9 -34 -17 -40 -80 -69 -53 -23 -75 -40 -94 -68 -13 -21 -67 -76
-120 -123 -53 -47 -107 -101 -120 -120 -13 -20 -39 -46 -58 -60 -19 -13 -59
-57 -89 -98 -84 -115 -88 -118 -215 -126 -60 -3 -136 -11 -169 -16 -154 -25
-457 -60 -519 -60 -79 0 -200 -37 -323 -98 l-78 -40 -250 -16 c-137 -10 -261
-20 -274 -22 -23 -5 -23 -5 -17 -117 3 -62 13 -251 21 -422 18 -355 53 -915
62 -981 l6 -44 1673 0 1674 0 0 4800 0 4800 -4800 0 -4800 0 0 -4800z"/>
<path d="M5572 7671 c-9 -5 10 -10 50 -15 74 -7 146 -31 206 -69 48 -31 51
-41 20 -58 -29 -15 -156 -50 -185 -51 -12 0 -29 -8 -38 -18 -13 -15 -21 -16
-45 -7 -61 23 -46 -16 23 -60 21 -13 35 -28 32 -33 -3 -6 1 -10 10 -10 11 0
15 -7 13 -22 -2 -18 -11 -24 -38 -26 l-35 -4 32 -13 c18 -8 52 -17 76 -20 40
-6 44 -5 55 20 7 14 12 32 12 39 0 8 7 19 15 26 8 7 12 16 10 21 -10 16 39 49
73 49 31 0 34 2 28 24 -5 20 -1 26 16 31 44 12 70 30 84 56 15 30 16 28 -67
92 -55 41 -304 76 -347 48z"/>
</g>
</svg>
